<svg id="Capa_1" enable-background="new 0 0 500.09 500.09" height="512" viewBox="0 0 500.09 500.09" width="512" xmlns="http://www.w3.org/2000/svg"><g><path d="m111.44 346.979c12.359 0 23.87 3.629 33.526 9.879 9.405-41.405 46.438-72.313 90.69-72.313 51.363 0 93 41.638 93 93 0 7.854-.974 15.48-2.807 22.765 19.19.238 34.674 15.869 34.674 35.116 0 19.396-15.723 35.119-35.119 35.119-14.077 0-190.679 0-213.965 0-34.122 0-61.783-27.661-61.783-61.783s27.662-61.783 61.784-61.783z" fill="#ccf5fc"/><circle cx="408.09" cy="111.545" fill="#ffc144" r="82"/><path d="m479.304 243.414-10.744-18.288c-11.495-19.565-32.49-31.581-55.182-31.581h-134.024l-59.348-42h-70l34.239 42h-69.239l-50-63h-50l27.692 99-32.609 40h30.435l17.03-12.052c9.904 10.02 23.607 16.052 38.419 16.052h104.577l-50.543 62h70l87.609-62h154.444c15.463 0 25.077-16.798 17.244-30.131z" fill="#fff"/><path d="m473.5 233.545h-65.57c-7.09 0-13.65-3.75-17.25-9.87l-17.7-30.13h40.4c22.69 0 43.69 12.02 55.18 31.58z" fill="#00ccf2"/><path d="m266.949 470.545c0 5.51-4.479 9.99-9.989 10-.011 0-.011 0-.011 0-5.52 0-10-4.49-10-10s4.48-10 10-10h.011c5.51.01 9.989 4.49 9.989 10zm220.977-232.196c10.906 18.164-.449 45.196-25.866 45.196h-151.264l-15.707 11.116c5.198 3.458 14.251 10.354 23.144 21.311 15.872 21.311 23.425 48.58 19.371 76.337 18.764 5.421 32.486 22.726 32.486 43.236 0 24.853-20.147 45-45 45h-23.03c-13.275 0-13.275-20.006 0-20.006h22.464c6.645.152 13.364-2.33 18.46-7.533 8.663-8.844 9.472-23.015 1.863-32.782-4.898-6.287-12.078-9.55-19.332-9.675-6.39-.11-10.997-6.338-9.42-12.531 5.216-20.485 2.659-42.968-8.955-62.657-7.242-12.277-17.234-22.011-28.751-28.881l-52.606 37.229c-1.689 1.195-3.708 1.837-5.777 1.837h-60.933c-1.75 4.197-3.154 8.528-4.197 12.947-1.569 6.648-9.272 9.692-15.052 6.052-17.69-11.143-41.181-10.937-58.985 2.439-21.92 16.468-27.24 47.689-11.978 70.465 9.963 14.869 26.112 22.878 42.578 23.096h100.41c13.196.013 13.176 20.014-.02 20.001h-99.74c-39.765 0-72-32.236-72-72 0-39.765 32.235-72 72-72 9.538 0 18.643 1.855 26.974 5.223 4.34-11.764 10.677-22.34 18.518-31.435l.023.09.021-.053 21.869-26.825h-83.52c-14.345 0-27.951-4.679-39.1-13.319l-10.572 7.482c-1.689 1.195-3.708 1.837-5.777 1.837h-30.435c-7.903 0-13.451-9.226-7.751-16.318l29.333-35.981-26.296-94.009c-1.511-5.371 1.972-12.693 9.63-12.693h50c3.051 0 5.936 1.394 7.833 3.783l46.997 59.217h43.355l-20.936-25.682c-5.746-8.189.448-16.318 7.751-16.318h70c2.069 0 4.087.642 5.777 1.837l56.752 40.163h68.345c-21.186-16.869-34.79-42.876-34.79-72 0-50.729 41.271-92 92-92s92 41.271 92 92c0 35.591-20.316 66.527-49.96 81.821 11.025 6.313 20.439 15.439 27.052 26.695zm-79.836-54.804c39.701 0 72-32.299 72-72s-32.299-72-72-72-72 32.299-72 72 32.299 72 72 72zm-17.635 20 8.851 15.065c1.788 3.044 5.092 4.935 8.622 4.935h47.394c-10.159-12.497-25.602-20-41.944-20zm-219.395-42 17.935 22h58.917l-31.087-22zm299.622 86.935-2.899-4.935h-59.855c-10.591 0-20.502-5.673-25.866-14.804l-14.803-25.196h-252.253c-3.051 0-5.936-1.394-7.833-3.783l-46.997-59.217h-31.989l24.142 86.307c.876 3.131.175 6.492-1.879 9.012l-19.306 23.682h6.2l53.925-38.163c4.51-3.19 10.75-2.12 13.939 2.387 3.19 4.508 2.122 10.749-2.386 13.939l-28.496 20.166c6.529 3.701 13.932 5.67 21.647 5.67h99.827l21.455-26.318c3.49-4.281 9.789-4.921 14.069-1.433 4.281 3.49 4.922 9.789 1.433 14.069l-61.697 75.682h45.765l127.404-90.163c4.508-3.189 10.749-2.12 13.939 2.387 3.19 4.508 2.122 10.749-2.387 13.939l-16.726 11.837h123.005c6.965 0 12.772-7.484 8.622-15.065z"/></g></svg>